HIERARCHY
ROOT Hips
{
	OFFSET -14.64140 90.27770 -84.91600
	CHANNELS 6 Xposition Yposition Zposition Zrotation Xrotation Yrotation
	JOINT Spine
	{
		OFFSET 0.00000 13.20850 -1.60436
		CHANNELS 3 Zrotation Xrotation Yrotation
		JOINT Spine1
		{
			OFFSET 0.00000 8.61716 0.00000
			CHANNELS 3 Zrotation Xrotation Yrotation
			JOINT Spine2
			{
				OFFSET 0.00000 8.61717 0.00000
				CHANNELS 3 Zrotation Xrotation Yrotation
				JOINT Spine3
				{
					OFFSET 0.00000 8.61717 0.00000
					CHANNELS 3 Zrotation Xrotation Yrotation
					JOINT Neck
					{
						OFFSET 0.00000 11.07920 1.10792
						CHANNELS 3 Zrotation Xrotation Yrotation
						JOINT Neck1
						{
							OFFSET 0.00000 7.08032 0.00000
							CHANNELS 3 Zrotation Xrotation Yrotation
							JOINT Head
							{
								OFFSET 0.00000 7.08031 0.00000
								CHANNELS 3 Zrotation Xrotation Yrotation
								End site
								{
									OFFSET 0.00000 0.00000 0.00000
								}
							}
						}
					}
					JOINT RightShoulder
					{
						OFFSET -0.01000 7.91373 5.19711
						CHANNELS 3 Zrotation Xrotation Yrotation
						JOINT RightArm
						{
							OFFSET -18.41580 0.00000 0.00000
							CHANNELS 3 Zrotation Xrotation Yrotation
							JOINT RightForeArm
							{
								OFFSET -29.11090 0.00000 0.00000
								CHANNELS 3 Zrotation Xrotation Yrotation
								JOINT RightHand
								{
									OFFSET -24.65040 0.00000 0.00000
									CHANNELS 3 Zrotation Xrotation Yrotation
									JOINT RightHandThumb1
									{
										OFFSET -5.35114 -0.85590 3.97906
										CHANNELS 3 Zrotation Xrotation Yrotation
										JOINT RightHandThumb2
										{
											OFFSET -4.52789 0.00000 0.00000
											CHANNELS 3 Zrotation Xrotation Yrotation
											JOINT RightHandThumb3
											{
												OFFSET -2.46976 0.00000 0.00000
												CHANNELS 3 Zrotation Xrotation Yrotation
												End site
												{
													OFFSET 0.00000 0.00000 0.00000
												}
											}
										}
									}
									JOINT RightHandIndex1
									{
										OFFSET -14.26970 0.00000 2.88139
										CHANNELS 3 Zrotation Xrotation Yrotation
										JOINT RightHandIndex2
										{
											OFFSET -5.48836 0.00000 0.00000
											CHANNELS 3 Zrotation Xrotation Yrotation
											JOINT RightHandIndex3
											{
												OFFSET -3.01859 0.00000 0.00000
												CHANNELS 3 Zrotation Xrotation Yrotation
												End site
												{
													OFFSET 0.00000 0.00000 0.00000
												}
											}
										}
									}
									JOINT RightHandMiddle1
									{
										OFFSET -14.26970 0.00000 -0.09147
										CHANNELS 3 Zrotation Xrotation Yrotation
										JOINT RightHandMiddle2
										{
											OFFSET -6.17441 0.00000 0.00000
											CHANNELS 3 Zrotation Xrotation Yrotation
											JOINT RightHandMiddle3
											{
												OFFSET -3.56743 0.00000 0.00000
												CHANNELS 3 Zrotation Xrotation Yrotation
												End site
												{
													OFFSET 0.00000 0.00000 0.00000
												}
											}
										}
									}
									JOINT RightHandRing1
									{
										OFFSET -12.69180 0.00000 -3.06433
										CHANNELS 3 Zrotation Xrotation Yrotation
										JOINT RightHandRing2
										{
											OFFSET -5.62556 0.00000 0.00000
											CHANNELS 3 Zrotation Xrotation Yrotation
											JOINT RightHandRing3
											{
												OFFSET -3.56744 0.00000 0.00000
												CHANNELS 3 Zrotation Xrotation Yrotation
												End site
												{
													OFFSET 0.00000 0.00000 0.00000
												}
											}
										}
									}
									JOINT RightHandPinky1
									{
										OFFSET -11.11390 0.00000 -6.03719
										CHANNELS 3 Zrotation Xrotation Yrotation
										JOINT RightHandPinky2
										{
											OFFSET -4.52789 0.00000 0.00000
											CHANNELS 3 Zrotation Xrotation Yrotation
											JOINT RightHandPinky3
											{
												OFFSET -2.46976 0.00000 0.00000
												CHANNELS 3 Zrotation Xrotation Yrotation
												End site
												{
													OFFSET 0.00000 0.00000 0.00000
												}
											}
										}
									}
								}
							}
						}
					}
					JOINT LeftShoulder
					{
						OFFSET 0.01000 7.91373 5.19711
						CHANNELS 3 Zrotation Xrotation Yrotation
						JOINT LeftArm
						{
							OFFSET 18.41580 0.00000 0.00000
							CHANNELS 3 Zrotation Xrotation Yrotation
							JOINT LeftForeArm
							{
								OFFSET 29.11090 0.00000 0.00000
								CHANNELS 3 Zrotation Xrotation Yrotation
								JOINT LeftHand
								{
									OFFSET 24.65040 0.00000 0.00000
									CHANNELS 3 Zrotation Xrotation Yrotation
									JOINT LeftHandThumb1
									{
										OFFSET 5.35114 -0.85590 3.97906
										CHANNELS 3 Zrotation Xrotation Yrotation
										JOINT LeftHandThumb2
										{
											OFFSET 4.52789 0.00000 0.00000
											CHANNELS 3 Zrotation Xrotation Yrotation
											JOINT LeftHandThumb3
											{
												OFFSET 2.46977 0.00000 0.00000
												CHANNELS 3 Zrotation Xrotation Yrotation
												End site
												{
													OFFSET 0.00000 0.00000 0.00000
												}
											}
										}
									}
									JOINT LeftHandIndex1
									{
										OFFSET 14.26970 0.00000 2.88139
										CHANNELS 3 Zrotation Xrotation Yrotation
										JOINT LeftHandIndex2
										{
											OFFSET 5.48836 0.00000 0.00000
											CHANNELS 3 Zrotation Xrotation Yrotation
											JOINT LeftHandIndex3
											{
												OFFSET 3.01859 0.00000 0.00000
												CHANNELS 3 Zrotation Xrotation Yrotation
												End site
												{
													OFFSET 0.00000 0.00000 0.00000
												}
											}
										}
									}
									JOINT LeftHandMiddle1
									{
										OFFSET 14.26970 0.00000 -0.09147
										CHANNELS 3 Zrotation Xrotation Yrotation
										JOINT LeftHandMiddle2
										{
											OFFSET 6.17440 0.00000 0.00000
											CHANNELS 3 Zrotation Xrotation Yrotation
											JOINT LeftHandMiddle3
											{
												OFFSET 3.56744 0.00000 0.00000
												CHANNELS 3 Zrotation Xrotation Yrotation
												End site
												{
													OFFSET 0.00000 0.00000 0.00000
												}
											}
										}
									}
									JOINT LeftHandRing1
									{
										OFFSET 12.69180 0.00000 -3.06433
										CHANNELS 3 Zrotation Xrotation Yrotation
										JOINT LeftHandRing2
										{
											OFFSET 5.62556 0.00000 0.00000
											CHANNELS 3 Zrotation Xrotation Yrotation
											JOINT LeftHandRing3
											{
												OFFSET 3.56744 0.00000 0.00000
												CHANNELS 3 Zrotation Xrotation Yrotation
												End site
												{
													OFFSET 0.00000 0.00000 0.00000
												}
											}
										}
									}
									JOINT LeftHandPinky1
									{
										OFFSET 11.11390 0.00000 -6.03719
										CHANNELS 3 Zrotation Xrotation Yrotation
										JOINT LeftHandPinky2
										{
											OFFSET 4.52789 0.00000 0.00000
											CHANNELS 3 Zrotation Xrotation Yrotation
											JOINT LeftHandPinky3
											{
												OFFSET 2.46976 0.00000 0.00000
												CHANNELS 3 Zrotation Xrotation Yrotation
												End site
												{
													OFFSET 0.00000 0.00000 0.00000
												}
											}
										}
									}
								}
							}
						}
					}
					JOINT pCube4
					{
						OFFSET 0.00000 10.91090 1.10792
						CHANNELS 3 Zrotation Xrotation Yrotation
						End site
						{
							OFFSET 0.00000 0.00000 0.00000
						}
					}
				}
			}
		}
	}
	JOINT RightUpLeg
	{
		OFFSET -9.98441 0.00000 0.00000
		CHANNELS 3 Zrotation Xrotation Yrotation
		JOINT RightLeg
		{
			OFFSET 0.00000 -42.11790 0.00000
			CHANNELS 3 Zrotation Xrotation Yrotation
			JOINT RightFoot
			{
				OFFSET 0.00000 -45.00020 -0.00001
				CHANNELS 3 Zrotation Xrotation Yrotation
				JOINT RightForeFoot
				{
					OFFSET 0.00000 -3.74820 0.00000
					CHANNELS 3 Zrotation Xrotation Yrotation
					JOINT RightToeBase
					{
						OFFSET 0.00000 0.06325 14.43120
						CHANNELS 3 Zrotation Xrotation Yrotation
						End site
						{
							OFFSET 0.00000 0.00000 0.00000
						}
					}
				}
			}
		}
	}
	JOINT LeftUpLeg
	{
		OFFSET 9.98441 0.00000 0.00000
		CHANNELS 3 Zrotation Xrotation Yrotation
		JOINT LeftLeg
		{
			OFFSET 0.00000 -42.11800 0.00000
			CHANNELS 3 Zrotation Xrotation Yrotation
			JOINT LeftFoot
			{
				OFFSET 0.00000 -45.00070 0.00000
				CHANNELS 3 Zrotation Xrotation Yrotation
				JOINT LeftForeFoot
				{
					OFFSET 0.00000 -3.74824 0.00000
					CHANNELS 3 Zrotation Xrotation Yrotation
					JOINT LeftToeBase
					{
						OFFSET 0.00000 0.06325 14.43110
						CHANNELS 3 Zrotation Xrotation Yrotation
						End site
						{
							OFFSET 0.00000 0.00000 0.00000
						}
					}
				}
			}
		}
	}
}
MOTION
Frames: 4
Frame Time: 0.050000
0.004702122118954684 0.021580975165141847 0.0023945655597006833 -0.021139331915412143 0.007881964953919442 -0.005045263015887474 2.0577229858781645 1.1976226903034004 -1.8441904864858025 -0.9017850179612867 3.547530576051004 0.4466436836449502 -1.1822008881154948 -1.504477351824729 0.2576041319694594 0.5074405917497739 -0.07464450469387636 -0.51207632452702 1.8443324933518834 13.659075839507656 -5.162544925746368 0.3462130689675587 0.5470683320820804 -12.441844905446406 2.0672612922559126 -14.99270805876031 -1.0541229426728862 -11.945842970212668 3.7606990699942617 -17.232814795799932 72.29975016793244 -14.981672313626433 22.880111447178862 15.083484097684618 2.1451645112984647 94.2138203805404 2.3545299056976807 -0.06645246576298622 -0.21143880560215822 4.481567991747264 -0.13865170831616702 -1.5745885065011167 -0.048074174842163336 -0.041190282940340224 -56.25940688421521 0.00038346398487702695 0.023303263412428138 -56.25110800265868 -38.77786242556031 0.011094882839242051 -0.015487544060733268 0.04057064437895527 0.04189062856619602 0.04613898158397388 -0.02863880997234706 0.02331413044644145 -0.028853878043810594 -36.73889849672716 0.042013267818310766 -0.026443090491329296 -0.03729443642768186 -0.019674103263312932 0.04360390073267298 -0.011984732413818687 -0.0094829758046163 -0.019064616380308718 -19.722298383465734 -0.019398904512520364 0.03858876066351164 -0.02012816406052927 -0.03533076324987852 -0.021921057126056926 0.009911428359322955 -0.04423343542158885 -0.003252337157363753 24.05068227545072 0.019208157947685964 0.033952524542198666 28.86102291199076 -0.03570052293911526 0.011641534166526038 28.857969623598226 0.001937689066891667 -0.010896300222060623 7.641914485581802 1.9282290945369374 13.331433752254553 -71.30623722335181 21.924956841303676 -11.4225292695685 -16.464989201877184 3.0783680006565746 -66.0982270750235 -11.952595897087873 -1.8845386160516022 0.6483637290130968 -0.5220589288903531 0.0287399927732511 -8.086944033077991 -0.005535853700919498 -0.00528986397062373 44.57227685776101 0.004928378328325276 0.0385037976234436 44.55810200976508 12.45954968575333 -0.03329491752013993 -0.03289335297880835 -0.005225456892653662 -0.002376854797526489 -0.04581455167672802 0.02561768098185679 -0.011037605869923172 -0.0040472658819200305 11.074497867991155 -0.023928092221970593 0.01848991106357996 0.027331226190394988 -0.031321561341940564 0.04474898019569721 -0.008916247042649055 0.03177114118347131 -0.04275235364566858 4.753810824288788 0.0239021701848725 -0.03277947719988182 0.04160689659854396 0.019947115154418785 -0.0044414694878857405 -0.03686683168033763 0.02926641003085452 -0.022260588415244077 -5.617001534684403 0.0407183158255526 -0.00017706735331906643 -6.764761302432116 0.02677387205687096 0.009834286924067655 -6.76787250993828 0.009368887486844458 0.00878736057592919 0.023838782284999818 -0.04691145666436028 -0.010401421498548278 8.037373025031297 3.512555896496429 -19.25555487401921 -0.024232258146465013 10.36868153720576 0.010372870802347738 -5.661208636017464 -15.70653913947756 3.198223806101602 0.04165844517895176 0.003907557985954282 -0.037809566774467486 -0.006196601287531657 4.711621072778608 -0.019666818593665092 12.491424788002915 -8.20558973048836 6.9033702697620525 0.02023405144127506 46.39493987294986 0.001557342877164281 -4.367199017419436 -14.765448032226352 -3.833670478221994 0.0030283618009093985 0.02589910634530724 -0.007330033905246434 -0.03544200693444558 -10.695386587469983 0.015013919621020645 
-0.025313877290745142 -0.029049354394508606 0.01706250870904026 0.021547660104001304 -0.016426117147064406 0.009574480216088461 2.382465166059315 1.1559878334269353 -1.8283430412324397 -0.8979581109369498 3.577371147694736 0.4475118348768673 -1.1164319653752282 -1.4995919984181898 0.4810757225028045 0.4258055669750941 -0.11694793357719292 -0.46317803107954136 1.8692656945440307 13.741612077179092 -5.341281789186796 0.3777289706715692 0.5797208776786018 -12.889861862334508 2.1310586046747555 -14.920375318660076 -1.1007278296066323 -12.253528639132254 3.814993129104216 -17.45125921642986 71.7720956795802 -14.820309437470865 23.701096342709302 12.533692165098026 1.8347245836643513 93.00750369865005 2.4186017047671355 -0.10696489172947507 -0.214165921704317 4.510478650620403 -0.1264999056963138 -1.6227746605837832 -0.0032979615132660506 -0.023601947079968443 -56.251637099381455 0.009392827909303741 0.006854181646604799 -56.26011064787251 -38.789535760125474 0.02416289469719674 -0.01564332238388303 -0.017655713939533246 0.018648426707203812 0.0003221661988456007 0.02243147518384172 -0.028110790372163925 -0.024024950804632052 -36.73061897899011 -0.03662517487711255 0.004122042865566344 -0.026046904784746125 0.0280042438947176 0.016286181375199056 0.026977601772618237 -0.01854679099275417 0.03951707435606082 -19.746079384728333 0.04912760427103995 0.026839285194595334 0.004750771766176946 -0.027786627427613533 -0.008704681346388736 0.02745439727507375 -0.027192344720370274 -0.020324647325892016 24.096829909836554 0.016573452960382047 0.024375969829629043 28.91487657090776 -0.03818911381920127 0.023487813638963576 28.881143788157374 0.01120532274781809 -0.04356324450558982 7.596617274731019 1.9008956848450975 13.521718886098515 -71.32174054151179 21.905753569369747 -10.538545608068128 -9.315012627187542 0.09437918432965026 -59.507831929987546 -12.379652746133038 -1.3947028160075994 0.7742832126507632 -0.4261641381787431 0.03497961546124918 -8.155589804095557 0.0072848143907686775 0.009225820651398976 44.5262455156741 -0.04083219690729046 -0.016564157236452715 44.61608105001089 12.480010777364324 0.029207000753739696 -0.007242083406694149 0.04550974714514173 0.016675777400075375 -0.0013900762192379738 -0.023721497036760384 -0.006117462290140458 0.02914056188181101 11.100837517787523 -0.028621868341677764 -0.00420146085267555 -0.024478566696902886 0.015225957003316203 -0.008066815069588645 0.014842408400773619 -0.03758002841692743 -0.038527850076092385 4.774585599846904 0.03190768722206055 0.03313029057607226 0.005425178338878147 0.033545896073131624 0.008507282575679214 -0.022440937332788874 -0.03254168019156761 0.033912794821863 -5.65048388898783 0.016360746407353948 0.03486989006305326 -6.710003775752664 0.021341165328744516 -0.03536176224151546 -6.714877833796867 -0.01138289130561908 0.042966630497924464 -0.009146565837862233 0.02996665244341207 -0.037405473367769206 8.035216960205684 3.5185605041816523 -19.21069502498962 0.0414195241208201 10.414360358551937 0.053568190802002646 -5.6223567178946166 -15.68062712855106 3.230471979373088 -0.023904377254372042 0.04189625354925231 0.02720047946514901 0.03418274562224115 4.672037966664825 -0.004988353750325688 12.432547996577362 -8.200525916431845 6.9048397486000495 0.02342168473140869 46.3727868027711 0.031279328667571465 -4.29580301609252 -14.73061849605889 -3.8133104837025273 0.007367870413849714 -0.006860751182069637 0.02149655013998584 -0.0022526340098735827 -10.707283423142465 0.006280762191969799 
0.02250192453068498 0.0004440840045094385 0.02190563003497969 -0.04722194398179747 -0.0024367446961898152 0.005284454724904459 2.7676232540993597 1.2448235351147776 -1.899294540323519 -0.8601315683147388 3.5741484044343403 0.3885120004324916 -1.1435838333802946 -1.486898703296746 0.8332689309026613 0.4425584608981778 -0.22102070238592442 -0.4010064922401107 2.0029890308518272 13.765880745601788 -5.426853088934349 0.34541599700951575 0.5664020843716764 -13.266160699545999 2.180200685573999 -14.991902240652028 -1.0562331276023984 -12.644204518724441 3.9449675598908374 -17.692289609045666 71.50819990649978 -14.937664723434933 24.3718276192735 10.142249827563138 1.4829478234486562 91.78078030220192 2.166829161636091 -0.09999965652562443 -0.16776815433163106 4.514949348959564 -0.1053039543717766 -1.5506433583794874 -0.004136333681903573 -0.013928752098805425 -56.22657192819739 -0.00365021648234208 0.00021577547234991257 -56.25788071073377 -38.76396841005069 -0.0003337148914117425 -0.00014387600419253318 -0.039531059130164845 0.006036746160606708 -0.02465490539947073 -0.02531751076739476 0.03300524600777449 -0.033467455704659456 -36.65367841449193 0.02138894275529957 0.024734324855052513 0.009918776278943976 -0.016943518639828254 0.0028178073894487518 0.009231741848652638 0.04741161092287098 0.006373810590117968 -19.721845215389973 0.034882015896998735 -0.020345963067037568 -0.04033727450389755 0.015253628939279784 -0.012035081070124012 0.006705552945521391 0.029002038245213788 -0.022037525392789383 24.035378218287125 -0.048821564995273195 -0.007840677819116218 28.87324104304634 0.038914483631277155 -0.011744513667025804 28.871419243360066 0.02585890259275525 -0.026460439186836576 7.514298682258198 1.8636429446386198 13.801291293796101 -71.60952750932985 21.594965444675072 -9.522280027904616 -3.297201867232547 -2.85677731773468 -53.70984401749666 -12.933395665965946 -1.057357773656073 0.7925319222912749 -0.5038147474422201 0.09248613514739831 -8.146055326526426 -0.026948733342217437 0.018685608295773943 44.52567301008958 0.005118136168383702 0.023716584483364757 44.57730926609966 12.467700109185618 -0.013793342061136735 0.026144963909172227 -0.04092877031446589 0.0026486629255544824 -0.011690352456093732 0.0076985858669789695 -0.03745092312911238 0.039997235344380024 11.065210121653317 0.02644818887659188 0.02463415991537511 0.0038795802091943802 0.03597462532004717 0.03570510030961624 0.03947357833939466 -0.012279946106167948 -0.02420252822476296 4.736993352064249 -0.0014323137749619828 0.02566221725436325 -0.010145654497169043 -0.0004409035410293607 0.03953283628550651 0.04314830234170744 0.012613284286341155 0.030271623797502145 -5.650735519555489 -0.04249212264625242 0.017620800316490232 -6.688756068396575 -0.025490826001657443 0.03752700971795888 -6.689732954456728 0.007573872479996809 0.03187514287981215 0.01910476060973689 0.020502063007945544 -0.006196596476839847 8.088802327343164 3.516030449814611 -19.24980987744853 -0.02554215377558104 10.402580528754054 -0.0051866303642413465 -5.599592406858397 -15.624241322129661 3.1843646329577076 -0.012675477181576664 -0.013501534503563206 0.03550361369654713 0.025736748088679255 4.735472998318745 0.023983693042138706 12.474256695886956 -8.284312478966115 6.891417555913313 0.043060782702311305 46.376182995447245 -0.03394217447920995 -4.31948831977877 -14.77222391949097 -3.81835109341173 0.04500282690330335 -0.042042025841395686 -0.047387347012769955 0.03746608834015015 -10.743865571465415 -0.03357984876610531 
-0.025781844606118612 0.03200360759456968 0.011846967829979725 0.0031759340980631588 -0.006608563109852555 -0.03295715216131053 3.2966295471311358 1.3684929956391723 -2.0301497816522427 -0.8944314412375173 3.594589214271525 0.4263640272266774 -1.1594865168803596 -1.427340903498422 1.0604155528641377 0.3938055117812299 -0.23365195259476976 -0.32568763866560035 2.03325604202642 13.754052537509665 -5.620596806332259 0.3170608566244915 0.46099402198141337 -13.706658432279271 2.1639198560892923 -15.144732774933324 -1.1521215634902255 -13.180751309550173 4.057199460711518 -17.95478299675154 71.76429967627197 -15.991253761827114 25.085147992793633 8.930918534501268 1.2360578437857805 90.86320473044289 1.8786627131080835 -0.07549346459946407 -0.12474940427832679 4.5688014734393265 -0.14630387015803442 -1.6076042576906067 -0.023800704847480376 -0.04678076737835081 -56.19489415260855 -0.00584022729829376 0.00980112801196269 -56.24012688032847 -38.8054495231516 0.019395115169582925 0.00547143849929843 0.03067777074249846 -0.013240989851449501 0.03542184767167203 0.018051651014219315 0.0003036294998025432 -0.013650983674040856 -36.7196231943771 -0.018950409594235225 0.037647291405370216 0.011872125025934013 -0.017237280332407914 0.011852641898892569 -0.0021735887824175628 0.004370257799407741 -0.01102228329413002 -19.714014182637577 -0.03194920697467773 0.02312940409500926 -0.042656278139983246 -0.03789830333786695 -0.000277499903488569 0.031049538156429437 0.01468150866273164 0.04369604432949954 24.020605282642414 -0.0036935662991583714 0.022196038160439767 28.854505733983807 -0.03803752954990479 0.01269228092170107 28.860982360417573 -0.02256761863352812 -0.018242970732475123 7.616084725987256 1.8533784503450563 13.98782682715596 -72.06308064173922 20.69827934745158 -9.026700494650871 -0.9112815535973928 -3.7066391904784854 -49.965735600283544 -13.629395168308598 -0.8356899366345668 0.8239772740747158 -0.4960864261805646 0.08231688440887304 -8.109328782637215 0.02836770332953257 0.005738544829511804 44.552687319394444 0.04009260999754333 0.017792208793382627 44.56971485360594 12.489158789652464 -0.02897795429030695 0.0033337633962608163 0.020163663052756645 0.019987809497911808 -0.03166171953927215 0.01265752365989175 -0.026311374539711163 -0.027757352644430557 11.068991519369943 -0.025005359757105553 -0.005977272750587241 0.03847166692919678 -0.04614797705716281 0.013660872076697382 -0.04760741012435829 0.04063225351544758 0.003301804947516451 4.776666617366053 0.04743589490543587 0.001449977328959268 -0.02863247337231894 -0.03472421478502863 -0.024482359308612988 0.04765364436570121 -0.00098367544583015 0.043562558086913034 -5.593523652070627 -0.0001287555468691676 0.02203789482884576 -6.745034715917535 -0.0038042831808990365 -0.014403326206934793 -6.6972546100709245 0.008369348290790352 -0.01907301863123763 0.012536440404924075 -0.020474995243073953 0.04802215695164995 8.028473113820125 3.5313708265064245 -19.221061354944844 0.02932924708629345 10.419679387750344 0.05675732236870758 -5.59205789615579 -15.674020485478685 3.168959405161369 -0.006305608475582715 -0.030469653419075492 0.031206817336773142 0.04371879807774062 4.71296317765999 0.03237148661513775 12.436903250327806 -8.237692171621575 6.924699611081338 0.04361580413002859 46.41715681218007 -0.04442849312983706 -4.369712405706147 -14.784781221271466 -3.879270974495513 -0.03932893230397391 -0.0016482351399997183 -0.01807378034211941 -0.038259772043604916 -10.787985674362329 0.008572800407024026 
